<svg xmlns="http://www.w3.org/2000/svg" viewBox="0 0 10 10"><g id="piggy" fill-rule="evenodd"><path fill="#263423" fill-opacity="1" class="c0" d="M2,4h1v2h-1zM4,4h1v2h-1z" /><path fill="#be646c" fill-opacity="1" class="c1" d="M2,0h1v1h1v1h-1v-1h-1zM5,0h1v1h1v1h1v-1h1v1h1v7h-1v1h-1v-1h-1v1h-1v-1h1v-7h-1v-1h-1zM5,6h1v2h-1zM1,7h1v1h-1z" /><path fill="#d87e86" fill-opacity="1" class="c2" d="M1,0h1v1h1v1h2v-1h-1v-1h1v1h1v1h1v-1h1v1h-1v7h1v1h-1v-1h-1v1h-5v-1h-1v-7h2v-1h-1zM4,7h1v1h1v-2h-1v-2h-1v2h-1v-2h-1v2h-1v2h3z" /><path fill="#f8a2aa" fill-opacity="1" class="c3" d="M1,1h1v1h-1zM4,1h1v1h-1zM1,6h4v1h-1v1h-2v-1h-1z" /></g></svg>